<?xml version="1.0" encoding="utf-8"?>
<svg version="1.1" xmlns:xlink="http://www.w3.org/1999/xlink" width="12px" height="12px" viewBox="18 91.5  12 12" xmlns="http://www.w3.org/2000/svg">
  <path d="M 24 91.5  C 27.36 91.5  30 94.14  30 97.5  C 30 100.86  27.36 103.5  24 103.5  C 20.64 103.5  18 100.86  18 97.5  C 18 94.14  20.64 91.5  24 91.5  Z " fill-rule="nonzero" fill="#ffffff" stroke="none" />
  <path d="M 24 92  C 27.08 92  29.5 94.42  29.5 97.5  C 29.5 100.58  27.08 103  24 103  C 20.92 103  18.5 100.58  18.5 97.5  C 18.5 94.42  20.92 92  24 92  Z " stroke-width="1" stroke="#797979" fill="none" />
  <path d="M 24 100.5  C 22.32 100.5  21 99.18  21 97.5  C 21 95.82  22.32 94.5  24 94.5  C 25.68 94.5  27 95.82  27 97.5  C 27 99.18  25.68 100.5  24 100.5  " fill-rule="nonzero" fill="#797979" stroke="none" />
</svg>